# xmcd CD database file
#
# Track frame offsets:
#	150
#	13567
#	28060
#	41729
#	55764
#	68626
#	83617
#	99445
#	118331
#	132871
#	144147
#	161923
#	178479
#	197072
#	211945
#
# Disc length: 3022 seconds
#
# Revision: 0
# Processed by: cddbd v1.5.2PL0 Copyright (c) Steve Scherf et al.
# Submitted via: CDex 2.05
#
DISCID=d00bcc0f
DTITLE=Toby Walker - Hand Picked
DYEAR=2008
DGENRE=Blues
TTITLE0=Big Meat Shakin' On the Bone
TTITLE1=Your Buggy Don't Ride Like Mine
TTITLE2=Better Luck Next Time
TTITLE3=Hey Good Lookin'
TTITLE4=Little Dixie
TTITLE5=Central Islip Jail Blues
TTITLE6=Bootlegger's Blues
TTITLE7=Mind You Own Business
TTITLE8=Hard Times Killing Floor
TTITLE9=Mama Keeps Her Kitchen Clean
TTITLE10=Generosity Rad
TTITLE11=Work Holler
TTITLE12=Special Rider Blues
TTITLE13=Leon's Little Girl
TTITLE14=The Secret
EXTD=YEAR: 2008
EXTT0=
EXTT1=
EXTT2=
EXTT3=
EXTT4=
EXTT5=
EXTT6=
EXTT7=
EXTT8=
EXTT9=
EXTT10=
EXTT11=
EXTT12=
EXTT13=
EXTT14=
PLAYORDER=
